<svg display="block" role="presentation" viewBox="0 0 101 26" xmlns="http://www.w3.org/2000/svg"><defs ><radialGradient cx="0.5" cy="0.5" gradient-transform="translate(0.5, 0.5) scale(1 1) translate(-0.5, -0.5)" id="vhilK6b4d-2840400021-radial-gradient" r="0.5"><stop offset="0" stop-color="rgb(95, 172, 207)"/><stop offset="1" stop-color="rgb(79, 147, 179)"/></radialGradient><radialGradient cx="0.5" cy="0.5" gradient-transform="translate(0.5, 0.5) scale(1 1) translate(-0.5, -0.5)" id="waLa9uatZ-2840400021-radial-gradient" r="0.5"><stop offset="0" stop-color="rgb(95, 172, 207)"/><stop offset="1" stop-color="rgb(79, 147, 179)"/></radialGradient><radialGradient cx="0.5" cy="0.5" gradient-transform="translate(0.5, 0.5) scale(1 1) translate(-0.5, -0.5)" id="ISMeAMQL7-2840400021-radial-gradient" r="0.5"><stop offset="0" stop-color="rgb(95, 172, 207)"/><stop offset="1" stop-color="rgb(79, 147, 179)"/></radialGradient><radialGradient cx="0.5" cy="0.5" gradient-transform="translate(0.5, 0.5) scale(1 1) translate(-0.5, -0.5)" id="OHdHC2Zuh-2840400021-radial-gradient" r="0.5"><stop offset="0" stop-color="rgb(95, 172, 207)"/><stop offset="1" stop-color="rgb(79, 147, 179)"/></radialGradient><radialGradient cx="0.5" cy="0.5" gradient-transform="translate(0.5, 0.5) scale(1 1) translate(-0.5, -0.5)" id="weWrQgL35-2840400021-radial-gradient" r="0.5"><stop offset="0" stop-color="rgb(95, 172, 207)"/><stop offset="1" stop-color="rgb(79, 147, 179)"/></radialGradient><radialGradient cx="0.5" cy="0.5" gradient-transform="translate(0.5, 0.5) scale(1 1) translate(-0.5, -0.5)" id="VY01nk42X-2840400021-radial-gradient" r="0.5"><stop offset="0" stop-color="rgb(95, 172, 207)"/><stop offset="1" stop-color="rgb(79, 147, 179)"/></radialGradient></defs><g d="M 27.098 10.639 C 25.077 10.639 24.052 9.816 24.052 8.195 L 24.052 2.961 C 24.052 1.339 25.078 0.517 27.098 0.517 L 34.913 0.517 L 34.913 2.012 L 27.098 2.012 C 26.294 2.012 25.886 2.326 25.886 2.947 L 25.886 8.209 C 25.886 8.83 26.294 9.144 27.099 9.144 L 34.913 9.144 L 34.913 10.638 L 27.098 10.638 Z M 27.098 10.639 C 24.893 10.639 24.052 9.646 24.052 8.195 L 24.052 2.961 C 24.052 1.509 24.893 0.517 27.098 0.517 L 34.913 0.517 L 34.913 2.012 L 27.098 2.012 C 26.271 2.012 25.884 2.343 25.884 2.947 L 25.884 8.209 C 25.884 8.813 26.271 9.144 27.098 9.144 L 34.913 9.144 L 34.913 10.638 L 27.098 10.638 Z M 42.19 10.639 C 40.168 10.639 39.144 9.816 39.144 8.195 L 39.144 2.961 C 39.144 1.339 40.17 0.517 42.19 0.517 L 48.599 0.517 C 50.62 0.517 51.644 1.339 51.644 2.961 L 51.644 8.194 C 51.644 9.816 50.619 10.639 48.599 10.639 Z M 42.19 2.012 C 41.386 2.012 40.977 2.326 40.977 2.947 L 40.977 8.209 C 40.977 8.83 41.386 9.144 42.19 9.144 L 48.599 9.144 C 49.403 9.144 49.811 8.829 49.811 8.209 L 49.811 2.947 C 49.811 2.326 49.403 2.012 48.598 2.012 L 42.19 2.012 Z M 42.131 10.64 C 39.926 10.64 39.085 9.647 39.085 8.196 L 39.085 2.963 C 39.085 1.51 39.926 0.518 42.131 0.518 L 48.54 0.518 C 50.745 0.518 51.585 1.511 51.585 2.962 L 51.585 8.195 C 51.585 9.647 50.745 10.64 48.54 10.64 Z M 49.753 2.948 C 49.753 2.344 49.367 2.013 48.54 2.013 L 42.131 2.013 C 41.304 2.013 40.917 2.344 40.917 2.948 L 40.917 8.21 C 40.917 8.813 41.303 9.144 42.131 9.144 L 48.54 9.144 C 49.367 9.144 49.753 8.813 49.753 8.21 Z M 68.896 10.64 L 68.896 3.552 L 63.963 10.64 L 62.459 10.64 L 57.511 3.565 L 57.511 10.64 L 55.816 10.64 L 55.816 0.517 L 57.525 0.517 L 63.286 8.785 L 69.02 0.517 L 70.591 0.517 L 70.591 10.64 Z M 68.952 10.64 L 68.952 3.552 L 64.017 10.64 L 62.515 10.64 L 57.567 3.565 L 57.567 10.64 L 55.872 10.64 L 55.872 0.517 L 57.581 0.517 L 63.342 8.783 L 69.076 0.517 L 70.647 0.517 L 70.647 10.64 Z M 74.878 10.64 L 74.878 0.517 L 84.857 0.517 L 84.857 2.013 L 76.711 2.013 L 76.711 4.83 L 84.444 4.83 L 84.444 6.326 L 76.711 6.326 L 76.711 9.143 L 84.857 9.143 L 84.857 10.64 Z M 74.913 10.64 L 74.913 0.517 L 84.892 0.517 L 84.892 2.012 L 76.747 2.012 L 76.747 4.83 L 84.48 4.83 L 84.48 6.325 L 76.747 6.325 L 76.747 9.144 L 84.892 9.144 L 84.892 10.638 L 74.913 10.638 Z M 94.209 10.64 L 94.209 2.013 L 89.123 2.013 L 89.123 0.517 L 100.99 0.517 L 100.99 2.013 L 96.042 2.013 L 96.042 10.64 Z M 94.218 10.64 L 94.218 2.013 L 89.132 2.013 L 89.132 0.517 L 101 0.517 L 101 2.012 L 96.052 2.012 L 96.052 10.64 Z M 31.012 21.33 L 26.386 21.33 C 25.082 21.33 24.584 20.743 24.584 19.883 L 24.584 16.786 C 24.584 15.927 25.082 15.34 26.386 15.34 L 31.012 15.34 L 31.012 16.225 L 26.386 16.225 C 25.897 16.225 25.669 16.421 25.669 16.778 L 25.669 19.892 C 25.669 20.249 25.897 20.446 26.386 20.446 L 31.012 20.446 L 31.012 21.33 Z M 39.353 21.33 L 35.559 21.33 C 34.254 21.33 33.757 20.743 33.757 19.883 L 33.757 16.786 C 33.757 15.927 34.254 15.34 35.559 15.34 L 39.353 15.34 C 40.658 15.34 41.155 15.927 41.155 16.786 L 41.155 19.884 C 41.155 20.743 40.658 21.33 39.353 21.33 Z M 40.07 19.892 L 40.07 16.778 C 40.07 16.421 39.842 16.225 39.353 16.225 L 35.559 16.225 C 35.07 16.225 34.841 16.421 34.841 16.778 L 34.841 19.892 C 34.841 20.249 35.07 20.446 35.559 20.446 L 39.353 20.446 C 39.842 20.446 40.07 20.249 40.07 19.892 Z M 52.798 21.33 L 51.795 21.33 L 51.795 17.136 L 48.874 21.33 L 47.986 21.33 L 45.057 17.144 L 45.057 21.33 L 44.053 21.33 L 44.053 15.34 L 45.065 15.34 L 48.475 20.233 L 51.868 15.34 L 52.798 15.34 Z M 60.442 19.118 L 56.821 19.118 L 56.821 21.33 L 55.736 21.33 L 55.736 15.34 L 60.442 15.34 C 61.747 15.34 62.245 15.927 62.245 16.786 L 62.245 17.671 C 62.245 18.531 61.747 19.118 60.442 19.118 Z M 61.16 17.68 L 61.16 16.778 C 61.16 16.421 60.932 16.225 60.442 16.225 L 56.821 16.225 L 56.821 18.233 L 60.442 18.233 C 60.932 18.233 61.16 18.037 61.16 17.68 Z M 70.448 21.33 L 66.655 21.33 C 65.35 21.33 64.852 20.743 64.852 19.883 L 64.852 15.34 L 65.937 15.34 L 65.937 19.892 C 65.937 20.249 66.166 20.446 66.655 20.446 L 70.219 20.446 C 70.709 20.446 70.938 20.249 70.938 19.892 L 70.938 15.34 L 72.022 15.34 L 72.022 19.883 C 72.022 20.743 71.753 21.33 70.448 21.33 Z M 78.686 21.33 L 77.601 21.33 L 77.601 16.225 L 74.591 16.225 L 74.591 15.34 L 81.614 15.34 L 81.614 16.225 L 78.686 16.225 Z M 90.124 21.33 L 84.218 21.33 L 84.218 15.34 L 90.124 15.34 L 90.124 16.225 L 85.303 16.225 L 85.303 17.722 L 89.879 17.722 L 89.879 18.607 L 85.303 18.607 L 85.303 20.445 L 90.124 20.445 Z M 18.55 17.972 L 10.729 22 L 8.361 19.065 L 11.501 17.268 L 14.17 16.481 L 18.55 17.972 Z M 9.935 21.824 L 6.285 20.678 L 4.082 19.908 L 7.874 19.27 L 9.935 21.824 Z M 7.531 18.804 L 3.358 19.505 L 4.269 14.228 L 7.531 18.804 Z M 2.929 19.041 L 0.859 15.062 L 3.802 13.982 Z M 5.793 13.246 L 5.8 13.284 L 5.819 13.318 L 7.155 15.783 L 7.202 15.871 L 7.295 15.902 L 10.783 17.088 L 8.047 18.655 L 4.424 13.573 L 5.472 11.708 Z M 14.654 14.75 L 11.527 15.845 L 11.121 15.183 L 14.694 13.791 Z M 7.875 13.614 L 7.993 13.686 L 10.567 15.245 L 10.83 15.676 L 8.118 14.726 L 7.178 12.912 L 7.802 11.859 Z M 14.61 13.272 L 10.892 14.72 L 10.108 12.557 L 13.636 11.316 L 14.609 13.272 Z M 3.519 13.537 L 0.681 14.578 L 0 11.509 L 3.519 13.536 Z M 9.573 12.558 L 10.263 14.461 L 8.364 13.31 L 8.292 11.542 Z M 15.685 12.868 L 15.195 13.815 L 15.211 13.445 L 15.507 12.119 Z M 5.146 11.259 L 4.032 13.24 L 0.593 11.259 L 5.146 11.259 Z M 15.243 11 L 14.87 12.665 L 14.042 11 L 14.87 9.335 L 15.243 11 Z M 7.725 11 L 7.003 12.218 L 6.747 11 L 7.003 9.782 L 7.725 11.001 Z M 12.983 11 L 9.829 12.109 L 8.43 10.999 L 9.829 9.891 L 12.983 10.999 Z M 16.094 11 L 15.936 11.752 L 15.758 11 L 15.936 10.248 L 16.094 10.999 Z M 5.146 10.741 L 0.593 10.741 L 4.031 8.759 L 5.146 10.742 Z M 14.609 8.728 L 13.636 10.683 L 10.108 9.442 L 10.892 7.279 L 14.61 8.728 Z M 3.519 8.461 L 0 10.49 L 0.681 7.422 Z M 9.573 9.442 L 8.292 10.458 L 8.364 8.689 L 10.263 7.537 Z M 10.783 4.91 L 7.295 6.098 L 7.202 6.13 L 7.155 6.218 L 5.819 8.682 L 5.8 8.716 L 5.793 8.754 L 5.472 10.291 L 4.424 8.426 L 8.047 3.344 L 10.783 4.911 Z M 10.566 6.755 L 7.993 8.315 L 7.875 8.386 L 7.802 10.141 L 7.178 9.088 L 8.118 7.274 L 10.83 6.323 Z M 15.684 9.131 L 15.506 9.88 L 15.209 8.554 L 15.194 8.185 L 15.684 9.131 Z M 14.653 7.249 L 14.694 8.208 L 11.121 6.815 L 11.526 6.153 Z M 3.802 8.016 L 0.858 6.938 L 2.929 2.96 Z M 7.531 3.195 L 4.269 7.771 L 3.357 2.495 L 7.53 3.194 Z M 18.55 4.028 L 14.171 5.518 L 11.501 4.73 L 8.361 2.933 L 10.729 0 L 18.551 4.028 Z M 7.874 2.729 L 4.123 2.1 L 9.921 0.193 Z" fill="transparent" height="22.00000036033969px" id="QNqj8bJYt" transform="translate(0 2)" width="100.99999971534054px"><path d="M 3.046 10.121 C 1.024 10.121 0 9.299 0 7.678 L 0 2.444 C 0 0.822 1.025 0 3.046 0 L 10.86 0 L 10.86 1.495 L 3.046 1.495 C 2.241 1.495 1.833 1.809 1.833 2.43 L 1.833 7.692 C 1.833 8.313 2.241 8.626 3.046 8.626 L 10.86 8.626 L 10.86 10.121 L 3.046 10.121 Z" fill="url(#vhilK6b4d-2840400021-radial-gradient)" height="10.121426926706318px" id="vhilK6b4d" transform="translate(24.052 0.517)" width="10.860155975788004px"/><path d="M 3.046 10.121 C 0.841 10.121 0 9.129 0 7.678 L 0 2.444 C 0 0.992 0.841 0 3.046 0 L 10.86 0 L 10.86 1.495 L 3.046 1.495 C 2.219 1.495 1.832 1.826 1.832 2.43 L 1.832 7.692 C 1.832 8.296 2.219 8.626 3.046 8.626 L 10.86 8.626 L 10.86 10.121 L 3.046 10.121 Z M 18.138 10.121 C 16.116 10.121 15.092 9.299 15.092 7.678 L 15.092 2.444 C 15.092 0.822 16.117 0 18.138 0 L 24.546 0 C 26.568 0 27.592 0.822 27.592 2.444 L 27.592 7.677 C 27.592 9.299 26.567 10.121 24.546 10.121 Z M 18.138 1.495 C 17.333 1.495 16.925 1.809 16.925 2.43 L 16.925 7.692 C 16.925 8.313 17.333 8.626 18.138 8.626 L 24.546 8.626 C 25.351 8.626 25.759 8.312 25.759 7.692 L 25.759 2.429 C 25.759 1.809 25.351 1.494 24.546 1.494 L 18.138 1.494 Z" fill="url(#waLa9uatZ-2840400021-radial-gradient)" height="10.121426926756108px" id="waLa9uatZ" transform="translate(24.052 0.517)" width="27.592102562245316px"/><path d="M 3.046 10.122 C 0.841 10.122 0 9.13 0 7.679 L 0 2.445 C 0 0.993 0.841 0.001 3.046 0.001 L 9.455 0.001 C 11.659 0.001 12.5 0.994 12.5 2.445 L 12.5 7.678 C 12.5 9.13 11.659 10.122 9.455 10.122 Z M 10.668 2.43 C 10.668 1.827 10.281 1.495 9.455 1.495 L 3.046 1.495 C 2.219 1.495 1.832 1.826 1.832 2.43 L 1.832 7.693 C 1.832 8.296 2.218 8.627 3.046 8.627 L 9.455 8.627 C 10.281 8.627 10.668 8.296 10.668 7.693 Z M 29.81 10.122 L 29.81 3.034 L 24.878 10.122 L 23.374 10.122 L 18.426 3.048 L 18.426 10.122 L 16.73 10.122 L 16.73 0 L 18.44 0 L 24.201 8.268 L 29.935 0 L 31.506 0 L 31.506 10.122 Z" fill="url(#ISMeAMQL7-2840400021-radial-gradient)" height="10.1224611501187px" id="ISMeAMQL7" transform="translate(39.085 0.517)" width="31.506126966514728px"/><path d="M 13.08 10.122 L 13.08 3.034 L 8.146 10.122 L 6.643 10.122 L 1.696 3.048 L 1.696 10.122 L 0 10.122 L 0 0 L 1.709 0 L 7.471 8.266 L 13.204 0 L 14.776 0 L 14.776 10.122 Z M 19.006 10.122 L 19.006 0 L 28.985 0 L 28.985 1.496 L 20.839 1.496 L 20.839 4.313 L 28.572 4.313 L 28.572 5.809 L 20.839 5.809 L 20.839 8.626 L 28.985 8.626 L 28.985 10.122 Z" fill="url(#OHdHC2Zuh-2840400021-radial-gradient)" height="10.1224611501187px" id="OHdHC2Zuh" transform="translate(55.872 0.517)" width="28.98513655652185px"/><path d="M 0 10.122 L 0 0 L 9.979 0 L 9.979 1.494 L 1.833 1.494 L 1.833 4.313 L 9.566 4.313 L 9.566 5.808 L 1.833 5.808 L 1.833 8.626 L 9.979 8.626 L 9.979 10.121 L 0 10.121 Z M 19.296 10.122 L 19.296 1.496 L 14.209 1.496 L 14.209 0 L 26.077 0 L 26.077 1.496 L 21.129 1.496 L 21.129 10.122 Z" fill="url(#weWrQgL35-2840400021-radial-gradient)" height="10.1224611501187px" id="weWrQgL35" transform="translate(74.913 0.517)" width="26.077303601754096px"/><path d="M 94.218 10.64 L 94.218 2.013 L 89.132 2.013 L 89.132 0.517 L 101 0.517 L 101 2.012 L 96.052 2.012 L 96.052 10.64 Z M 31.012 21.33 L 26.386 21.33 C 25.082 21.33 24.584 20.743 24.584 19.883 L 24.584 16.786 C 24.584 15.927 25.082 15.34 26.386 15.34 L 31.012 15.34 L 31.012 16.225 L 26.386 16.225 C 25.897 16.225 25.669 16.421 25.669 16.778 L 25.669 19.892 C 25.669 20.249 25.897 20.446 26.386 20.446 L 31.012 20.446 L 31.012 21.33 Z M 39.353 21.33 L 35.559 21.33 C 34.254 21.33 33.757 20.743 33.757 19.883 L 33.757 16.786 C 33.757 15.927 34.254 15.34 35.559 15.34 L 39.353 15.34 C 40.658 15.34 41.155 15.927 41.155 16.786 L 41.155 19.884 C 41.155 20.743 40.658 21.33 39.353 21.33 Z M 40.07 19.892 L 40.07 16.778 C 40.07 16.421 39.842 16.225 39.353 16.225 L 35.559 16.225 C 35.07 16.225 34.841 16.421 34.841 16.778 L 34.841 19.892 C 34.841 20.249 35.07 20.446 35.559 20.446 L 39.353 20.446 C 39.842 20.446 40.07 20.249 40.07 19.892 Z M 52.798 21.33 L 51.795 21.33 L 51.795 17.136 L 48.874 21.33 L 47.986 21.33 L 45.057 17.144 L 45.057 21.33 L 44.053 21.33 L 44.053 15.34 L 45.065 15.34 L 48.475 20.233 L 51.868 15.34 L 52.798 15.34 Z M 60.442 19.118 L 56.821 19.118 L 56.821 21.33 L 55.736 21.33 L 55.736 15.34 L 60.442 15.34 C 61.747 15.34 62.245 15.927 62.245 16.786 L 62.245 17.671 C 62.245 18.531 61.747 19.118 60.442 19.118 Z M 61.16 17.68 L 61.16 16.778 C 61.16 16.421 60.932 16.225 60.442 16.225 L 56.821 16.225 L 56.821 18.233 L 60.442 18.233 C 60.932 18.233 61.16 18.037 61.16 17.68 Z M 70.448 21.33 L 66.655 21.33 C 65.35 21.33 64.852 20.743 64.852 19.883 L 64.852 15.34 L 65.937 15.34 L 65.937 19.892 C 65.937 20.249 66.166 20.446 66.655 20.446 L 70.219 20.446 C 70.709 20.446 70.938 20.249 70.938 19.892 L 70.938 15.34 L 72.022 15.34 L 72.022 19.883 C 72.022 20.743 71.753 21.33 70.448 21.33 Z M 78.686 21.33 L 77.601 21.33 L 77.601 16.225 L 74.591 16.225 L 74.591 15.34 L 81.614 15.34 L 81.614 16.225 L 78.686 16.225 Z M 90.124 21.33 L 84.218 21.33 L 84.218 15.34 L 90.124 15.34 L 90.124 16.225 L 85.303 16.225 L 85.303 17.722 L 89.879 17.722 L 89.879 18.607 L 85.303 18.607 L 85.303 20.445 L 90.124 20.445 Z M 18.55 17.972 L 10.729 22 L 8.361 19.065 L 11.501 17.268 L 14.17 16.481 L 18.55 17.972 Z M 9.935 21.824 L 6.285 20.678 L 4.082 19.908 L 7.874 19.27 L 9.935 21.824 Z M 7.531 18.804 L 3.358 19.505 L 4.269 14.228 L 7.531 18.804 Z M 2.929 19.041 L 0.859 15.062 L 3.802 13.982 Z M 5.793 13.246 L 5.8 13.284 L 5.819 13.318 L 7.155 15.783 L 7.202 15.871 L 7.295 15.902 L 10.783 17.088 L 8.047 18.655 L 4.424 13.573 L 5.472 11.708 Z M 14.654 14.75 L 11.527 15.845 L 11.121 15.183 L 14.694 13.791 Z M 7.875 13.614 L 7.993 13.686 L 10.567 15.245 L 10.83 15.676 L 8.118 14.726 L 7.178 12.912 L 7.802 11.859 Z M 14.61 13.272 L 10.892 14.72 L 10.108 12.557 L 13.636 11.316 L 14.609 13.272 Z M 3.519 13.537 L 0.681 14.578 L 0 11.509 L 3.519 13.536 Z M 9.573 12.558 L 10.263 14.461 L 8.364 13.31 L 8.292 11.542 Z M 15.685 12.868 L 15.195 13.815 L 15.211 13.445 L 15.507 12.119 Z M 5.146 11.259 L 4.032 13.24 L 0.593 11.259 L 5.146 11.259 Z M 15.243 11 L 14.87 12.665 L 14.042 11 L 14.87 9.335 L 15.243 11 Z M 7.725 11 L 7.003 12.218 L 6.747 11 L 7.003 9.782 L 7.725 11.001 Z M 12.983 11 L 9.829 12.109 L 8.43 10.999 L 9.829 9.891 L 12.983 10.999 Z M 16.094 11 L 15.936 11.752 L 15.758 11 L 15.936 10.248 L 16.094 10.999 Z M 5.146 10.741 L 0.593 10.741 L 4.031 8.759 L 5.146 10.742 Z M 14.609 8.728 L 13.636 10.683 L 10.108 9.442 L 10.892 7.279 L 14.61 8.728 Z M 3.519 8.461 L 0 10.49 L 0.681 7.422 Z M 9.573 9.442 L 8.292 10.458 L 8.364 8.689 L 10.263 7.537 Z M 10.783 4.91 L 7.295 6.098 L 7.202 6.13 L 7.155 6.218 L 5.819 8.682 L 5.8 8.716 L 5.793 8.754 L 5.472 10.291 L 4.424 8.426 L 8.047 3.344 L 10.783 4.911 Z M 10.566 6.755 L 7.993 8.315 L 7.875 8.386 L 7.802 10.141 L 7.178 9.088 L 8.118 7.274 L 10.83 6.323 Z M 15.684 9.131 L 15.506 9.88 L 15.209 8.554 L 15.194 8.185 L 15.684 9.131 Z M 14.653 7.249 L 14.694 8.208 L 11.121 6.815 L 11.526 6.153 Z M 3.802 8.016 L 0.858 6.938 L 2.929 2.96 Z M 7.531 3.195 L 4.269 7.771 L 3.357 2.495 L 7.53 3.194 Z M 18.55 4.028 L 14.171 5.518 L 11.501 4.73 L 8.361 2.933 L 10.729 0 L 18.551 4.028 Z M 7.874 2.729 L 4.123 2.1 L 9.921 0.193 Z" fill="url(#VY01nk42X-2840400021-radial-gradient)" height="22.00000036033969px" id="VY01nk42X" width="100.99999971534054px"/></g></svg>